<svg id="Ebene_1" data-name="Ebene 1" xmlns="http://www.w3.org/2000/svg" viewBox="0 0 400 400"><defs><style>.cls-1{fill:#2a96ff;}.cls-2{fill:#fff;}.cls-3{fill:#3a3a3a;}</style></defs><title>Zeichenfläche 1</title><rect class="cls-1" x="34.2" y="89.42" width="332.6" height="223.17" rx="20.05"/><path class="cls-2" d="M206.78,285.48H173V251.72H105.49v33.76H71.84V184.31A65.73,65.73,0,0,1,77.14,158a68.68,68.68,0,0,1,14.41-21.48A67.57,67.57,0,0,1,113,122.07a68,68,0,0,1,52.59,0,67.69,67.69,0,0,1,35.94,36,65.72,65.72,0,0,1,5.29,26.29ZM173,218.07V184.31a32.87,32.87,0,0,0-2.65-13.12,33.7,33.7,0,0,0-18-18,33.78,33.78,0,0,0-26.23,0,33.7,33.7,0,0,0-18,18,32.87,32.87,0,0,0-2.65,13.12v33.76Z"/><path class="cls-2" d="M246.43,228.56H218.79V216.51h27.64a3,3,0,0,0,3-3,1.66,1.66,0,0,0-.89-1.68,5.08,5.08,0,0,0-2.12-.4H233.85a14.69,14.69,0,0,1-5.89-1.19,15.14,15.14,0,0,1-8-8.07,15.41,15.41,0,0,1,0-11.78,15.34,15.34,0,0,1,3.21-4.78,15,15,0,0,1,4.79-3.21,14.85,14.85,0,0,1,5.89-1.17h24.49v12H233.85a3,3,0,0,0-3,3,3,3,0,0,0,.88,2.2,2.88,2.88,0,0,0,2.13.9h12.58a16.22,16.22,0,0,1,5.84,1,14.67,14.67,0,0,1,4.79,2.9,13.71,13.71,0,0,1,3.23,4.47,13.53,13.53,0,0,1,1.2,5.71,14.37,14.37,0,0,1-1.2,5.87,15.8,15.8,0,0,1-3.23,4.79,14.93,14.93,0,0,1-10.63,4.4Z"/><path class="cls-3" d="M267.26,285.49H252.47L243,271l-9.52,14.53H218.72L236,261.18l-17.32-23.39h14.79l9.52,13.6,9.44-13.6h14.79L249.9,261.18Z"/><path class="cls-3" d="M288.43,273.89a7.16,7.16,0,0,0,1.42.29c.47,0,.95.06,1.42.06a12.06,12.06,0,0,0,3.41-.48,12.42,12.42,0,0,0,3.08-1.4,11.45,11.45,0,0,0,4.4-5.12l8.86,8.91a23.92,23.92,0,0,1-3.87,4.29,25.18,25.18,0,0,1-4.74,3.24,24.12,24.12,0,0,1-11.14,2.7,24,24,0,0,1-17.12-7,24.18,24.18,0,0,1-5.2-7.91A26,26,0,0,1,267,261.35,26.83,26.83,0,0,1,269,251.08a23.16,23.16,0,0,1,12.91-13,24.42,24.42,0,0,1,9.41-1.82,24.31,24.31,0,0,1,15.94,6,24.2,24.2,0,0,1,3.9,4.32Zm6.2-24.94a7.29,7.29,0,0,0-1.66-.4,15.51,15.51,0,0,0-1.7-.08,12.14,12.14,0,0,0-4.67.9,11.06,11.06,0,0,0-3.81,2.59,12.3,12.3,0,0,0-2.55,4.06,14.5,14.5,0,0,0-.93,5.33c0,.45,0,.95.07,1.51a14.39,14.39,0,0,0,.22,1.7c.1.58.23,1.13.37,1.67a6,6,0,0,0,.58,1.41Z"/><polygon class="cls-2" points="312.02 181.22 298.12 181.22 280.09 204.07 280.09 181.22 267.91 181.22 267.91 228.56 280.09 228.56 280.09 222.49 288.5 211.33 298.12 228.56 312.02 228.56 296.3 200.97 312.02 181.22"/><rect class="cls-3" x="317.18" y="236.19" width="12.18" height="49.3"/><path class="cls-2" d="M373.77,102.28a33.5,33.5,0,0,1,4,12.91,33.94,33.94,0,0,1-1.21,13,34.73,34.73,0,0,1-6,11.62,33,33,0,0,1-10.36,8.71,10.11,10.11,0,0,0-3.37,2.83,8.5,8.5,0,0,0-1.55,3.59,10.72,10.72,0,0,0,.09,4.06,15.12,15.12,0,0,0,1.57,4.19l2.88,5.28L340,179.31l-3-5.56a36.93,36.93,0,0,1-4.1-12.73,32.73,32.73,0,0,1,.77-12.64,31.66,31.66,0,0,1,15.75-19.81,11.14,11.14,0,0,0,3.48-2.88,11.38,11.38,0,0,0,2-3.84,11.86,11.86,0,0,0,.42-4.38,11.18,11.18,0,0,0-1.35-4.36,10.66,10.66,0,0,0-2.92-3.45,11.68,11.68,0,0,0-3.87-2,11.41,11.41,0,0,0-4.32-.4,11.24,11.24,0,0,0-4.31,1.36l-45.65,24.89-10.88-19.94L327.6,88.69a33,33,0,0,1,12.92-4,34.87,34.87,0,0,1,13,1.24,34.24,34.24,0,0,1,11.56,6A33.29,33.29,0,0,1,373.77,102.28Zm-2.38,82.6a13.57,13.57,0,0,1,1.14,10.37,13.73,13.73,0,0,1-2.36,4.59,13.09,13.09,0,0,1-4.08,3.44,13.27,13.27,0,0,1-5.13,1.58,14,14,0,0,1-5.21-.46,13.18,13.18,0,0,1-4.63-2.38,13.45,13.45,0,0,1-3.5-4.18,13,13,0,0,1-1.56-5.1,13.5,13.5,0,0,1,.52-5.15A14.28,14.28,0,0,1,349,183a13.36,13.36,0,0,1,4.11-3.46,13,13,0,0,1,5.1-1.56,13.8,13.8,0,0,1,5.14.49,13.63,13.63,0,0,1,4.58,2.37A12.94,12.94,0,0,1,371.39,184.88Z"/></svg>