<svg id="Ebene_1" data-name="Ebene 1" xmlns="http://www.w3.org/2000/svg" width="332.59" height="223.17" viewBox="0 0 332.59 223.17"><defs><style>.cls-1{fill:#fff;}.cls-2{fill:#2a96ff;}.cls-3{fill:#3a3a3a;}</style></defs><title>ask_axel_logo3</title><rect class="cls-1" width="332.59" height="223.17" rx="20.01"/><path class="cls-2" d="M332.85,64a10,10,0,0,0-3.37,2.82,8.61,8.61,0,0,0-1.56,3.6,11.08,11.08,0,0,0,.09,4,15.06,15.06,0,0,0,1.57,4.2l2.88,5.28L312.58,94.75l-3-5.56a37.09,37.09,0,0,1-4.1-12.72,32.73,32.73,0,0,1,.78-12.64A31.57,31.57,0,0,1,322,44a11.5,11.5,0,0,0,3.47-2.88,11.19,11.19,0,0,0,2-3.85,11.78,11.78,0,0,0,.41-4.37,11.28,11.28,0,0,0-1.34-4.36,11.06,11.06,0,0,0-2.92-3.46,11.89,11.89,0,0,0-3.88-2,11.2,11.2,0,0,0-8.63,1L265.45,49,254.58,29l44.3-24.15h-272A20.06,20.06,0,0,0,6.83,24.92V208a20,20,0,0,0,20.06,20H319.38a20,20,0,0,0,20.05-20v-89.7c-.23.15-.46.3-.71.43a13.1,13.1,0,0,1-5.13,1.58,14.1,14.1,0,0,1-5.2-.45,13.3,13.3,0,0,1-4.64-2.38,13.57,13.57,0,0,1-3.5-4.18,13,13,0,0,1-1.56-5.1,13.53,13.53,0,0,1,.53-5.16,14.29,14.29,0,0,1,2.44-4.62A13,13,0,0,1,325.77,95a12.71,12.71,0,0,1,5.09-1.56,13.6,13.6,0,0,1,5.14.49,13.43,13.43,0,0,1,3.43,1.56V59.3A34.08,34.08,0,0,1,332.85,64Z" transform="translate(-6.83 -4.87)"/><path class="cls-1" d="M179.42,200.93H145.65V167.17H78.12v33.76H44.48V99.76a65.77,65.77,0,0,1,5.29-26.3A68.75,68.75,0,0,1,64.18,52,67.52,67.52,0,0,1,85.59,37.52a68,68,0,0,1,52.59,0,67.71,67.71,0,0,1,35.94,35.94,65.78,65.78,0,0,1,5.3,26.3Zm-33.77-67.41V99.76A32.87,32.87,0,0,0,143,86.64a33.64,33.64,0,0,0-18-18,33.8,33.8,0,0,0-26.24,0,33.7,33.7,0,0,0-18,18,33,33,0,0,0-2.65,13.12v33.76Z" transform="translate(-6.83 -4.87)"/><path class="cls-1" d="M219.06,144H191.42V132h27.64a3,3,0,0,0,3-3,1.63,1.63,0,0,0-.88-1.68,5.09,5.09,0,0,0-2.13-.4H206.48a14.53,14.53,0,0,1-5.89-1.2,15.11,15.11,0,0,1-4.78-3.25,15.36,15.36,0,0,1-3.21-4.81,15.29,15.29,0,0,1,0-11.78,14.93,14.93,0,0,1,8-8,14.69,14.69,0,0,1,5.89-1.18H231v12H206.48a3,3,0,0,0-3,3,3,3,0,0,0,.89,2.19,2.83,2.83,0,0,0,2.12.91h12.58a16.45,16.45,0,0,1,5.85,1,14.9,14.9,0,0,1,4.78,2.9A13.7,13.7,0,0,1,234.12,129a14.4,14.4,0,0,1-1.2,5.87,15.57,15.57,0,0,1-3.23,4.78,14.92,14.92,0,0,1-4.78,3.24A14.76,14.76,0,0,1,219.06,144Z" transform="translate(-6.83 -4.87)"/><path class="cls-3" d="M239.89,200.94H225.1l-9.43-14.53-9.53,14.53H191.35l17.32-24.32-17.32-23.38h14.79l9.53,13.6,9.43-13.6h14.79l-17.36,23.38Z" transform="translate(-6.83 -4.87)"/><path class="cls-3" d="M261.07,189.34a7,7,0,0,0,1.41.28,13.5,13.5,0,0,0,1.42.07,11.72,11.72,0,0,0,3.41-.49,12.39,12.39,0,0,0,3.08-1.39,11.8,11.8,0,0,0,2.57-2.22,12,12,0,0,0,1.84-2.9l8.85,8.9a23.65,23.65,0,0,1-3.87,4.3,24.06,24.06,0,0,1-4.74,3.23,23.56,23.56,0,0,1-5.36,2,24.19,24.19,0,0,1-5.78.69,23.92,23.92,0,0,1-17.12-7.05,24.3,24.3,0,0,1-5.2-7.9,26,26,0,0,1-1.91-10.08,26.83,26.83,0,0,1,1.91-10.27,23.22,23.22,0,0,1,12.91-13,24.45,24.45,0,0,1,9.41-1.81,23.44,23.44,0,0,1,5.8.71,24.54,24.54,0,0,1,5.38,2,24.21,24.21,0,0,1,4.76,3.26,23.53,23.53,0,0,1,3.9,4.32Zm6.2-24.94a6.91,6.91,0,0,0-1.66-.4,15.77,15.77,0,0,0-1.71-.09,12.18,12.18,0,0,0-4.67.91,11.25,11.25,0,0,0-3.81,2.59,12.15,12.15,0,0,0-2.55,4.05,14.52,14.52,0,0,0-.93,5.34c0,.44,0,.95.07,1.51a16.83,16.83,0,0,0,.22,1.7,16.15,16.15,0,0,0,.38,1.66,5.69,5.69,0,0,0,.57,1.42Z" transform="translate(-6.83 -4.87)"/><polygon class="cls-1" points="277.82 91.79 263.91 91.79 245.89 114.64 245.89 91.79 233.71 91.79 233.71 139.14 245.89 139.14 245.89 133.07 254.3 121.91 263.91 139.14 277.82 139.14 262.1 111.55 277.82 91.79"/><rect class="cls-3" x="282.98" y="146.76" width="12.18" height="49.3"/></svg>