<svg width="110" height="90" xmlns="http://www.w3.org/2000/svg" xmlns:svg="http://www.w3.org/2000/svg" preserveAspectRatio="xMidYMid meet">
 <g>
  <title>Layer 1</title>
  <g stroke="null" id="svg_1" fill="#000000" transform="translate(0,267) scale(0.10000000149011612,-0.10000000149011612) ">
   <path stroke="#ffffff" fill="#000000" stroke-width="0" id="svg_2" d="m284.478356,2627.245218c-0.98723,-1.27888 -0.658153,-4.47608 0.658153,-7.353561c2.632613,-4.7958 8.226914,-40.284723 13.163063,-85.045526c3.619842,-34.210042 14.150293,-17.584601 13.163063,21.101521c-0.98723,26.217042 2.961689,34.210042 8.885068,18.543761c2.303536,-5.75496 4.277995,-15.026841 4.277995,-20.462081c0.329077,-5.11552 3.290766,-14.387401 6.910608,-20.142361c9.214144,-14.387401 8.555991,-19.822641 -2.303536,-19.822641c-14.479369,-0.31972 -24.02259,-10.231041 -24.02259,-24.618442c0,-15.026841 10.53045,-26.536762 24.02259,-26.536762c10.201374,0 11.188604,-3.1972 2.961689,-10.550761c-5.594302,-4.7958 -6.581532,-4.7958 -16.782905,4.47608c-5.923378,5.11552 -11.846757,8.632441 -13.163063,7.673281c-0.98723,-1.27888 -1.974459,-25.897322 -2.303536,-54.672124l0,-52.753804l7.897838,1.91832c4.277995,0.95916 15.137523,7.993001 24.02259,15.346561c21.060901,17.264881 24.351667,28.774802 19.415518,63.944005c-5.923378,41.563603 -7.239685,64.903165 -6.252455,106.147048c0.329077,12.469081 -0.98723,29.733962 -3.290766,38.366403c-3.619842,14.067681 -6.252455,17.584601 -25.00982,31.332562c-20.402748,14.387401 -27.642432,17.264881 -32.249504,13.108521z"/>
   <path stroke="#ffffff" fill="#000000" stroke-width="0" id="svg_3" d="m772.498918,2619.571937c-6.252455,-5.11552 -12.833986,-9.591601 -14.150293,-9.591601c-4.277995,0 -14.150293,-10.550761 -16.782905,-17.584601c-7.239685,-19.183201 -8.885068,-75.134205 -2.303536,-75.134205c4.607072,0 16.124752,31.972002 18.428288,50.515764c1.316306,10.870481 3.619842,19.822641 4.936149,19.822641c1.645383,0 3.619842,-7.993001 4.607072,-17.584601c0.98723,-9.591601 2.961689,-25.577602 3.948919,-35.169202c1.974459,-18.543761 6.581532,-25.897322 9.214144,-13.747961c0.658153,4.15636 4.277995,27.495922 7.897838,52.114364c3.290766,24.618442 7.239685,47.318563 8.555991,50.515764c4.277995,9.271881 -11.188604,6.71412 -24.351667,-4.15636z"/>
   <path stroke="#ffffff" fill="#000000" stroke-width="0" id="svg_4" d="m127.508829,2601.987336c-17.770135,-17.264881 -17.770135,-17.904321 -19.086441,-39.645283c-0.658153,-12.788801 0.329077,-27.176202 2.632613,-34.210042c4.277995,-12.149361 4.277995,-12.149361 7.239685,-4.47608c1.974459,4.47608 4.277995,18.224041 5.265225,30.373402c1.645383,16.945161 3.619842,22.380402 7.239685,22.380402c3.290766,0 5.265225,-3.83664 5.594302,-11.190201c1.316306,-17.904321 7.897838,-44.760803 10.859527,-44.760803c1.645383,0 3.290766,18.224041 4.277995,40.924163c0.98723,22.380402 2.632613,44.441083 3.948919,49.556604c3.948919,14.387401 -7.897838,10.870481 -27.971509,-8.952161z"/>
   <path stroke="#ffffff" fill="#000000" stroke-width="0" id="svg_5" d="m925.848603,2609.340897c1.645383,-5.75496 3.290766,-26.217042 3.290766,-45.719963c0.658153,-46.359403 0.329077,-44.760803 5.923378,-40.284723c2.303536,1.91832 6.252455,14.387401 8.555991,27.815642c3.290766,20.462081 4.607072,23.659282 8.226914,20.142361c2.303536,-2.55776 5.265225,-14.387401 6.581532,-26.856482c4.277995,-44.441083 13.163063,-35.169202 13.163063,13.428241l0,26.217042l-18.099212,17.904321c-21.060901,20.781801 -32.249504,23.659282 -27.642432,7.353561z"/>
   <path stroke="#ffffff" fill="#000000" stroke-width="0" id="svg_6" d="m362.469504,2518.22069c1.316306,-8.632441 2.961689,-21.740962 3.948919,-29.733962c0.98723,-7.993001 2.632613,-16.625441 3.290766,-19.183201c2.961689,-8.632441 7.897838,3.51692 7.897838,19.502921c0,13.428241 -10.859527,44.441083 -15.466599,44.441083c-0.98723,0 -0.98723,-6.71412 0.329077,-15.026841z"/>
   <path stroke="#ffffff" fill="#000000" stroke-width="0" id="svg_7" d="m710.632522,2519.81929c-6.910608,-14.387401 -9.543221,-37.726963 -5.265225,-48.597443c3.290766,-8.312721 7.897838,-2.55776 7.897838,9.591601c0,6.07468 1.645383,17.584601 3.619842,24.938162c1.974459,7.673281 2.961689,17.264881 2.303536,21.421242c-0.98723,6.71412 -2.303536,5.75496 -8.555991,-7.353561z"/>
   <path stroke="#ffffff" fill="#000000" stroke-width="0" id="svg_8" d="m595.45572,2519.81929c-2.303536,-2.23804 -3.948919,-9.911321 -3.948919,-17.264881c0,-11.509921 -0.98723,-13.747961 -8.226914,-15.346561c-4.607072,-1.27888 -8.226914,-3.51692 -8.226914,-5.11552c0,-4.7958 17.441059,-7.993001 19.086441,-3.83664c0.658153,2.23804 3.619842,3.83664 6.581532,3.83664c4.936149,-0.31972 4.936149,-0.63944 0,-4.47608c-3.290766,-2.23804 -5.923378,-5.75496 -5.923378,-7.993001c0,-1.91832 -1.974459,-4.47608 -4.277995,-5.43524c-2.632613,-0.95916 -7.897838,-6.07468 -12.175833,-11.509921l-7.239685,-9.591601l6.910608,-9.271881c3.948919,-4.7958 6.910608,-11.190201 6.910608,-13.428241c0,-2.55776 2.303536,-6.3944 4.936149,-8.632441c6.910608,-5.43524 6.252455,-11.190201 -2.303536,-16.625441c-5.594302,-3.51692 -6.581532,-6.3944 -4.607072,-13.428241c2.632613,-10.231041 9.543221,-13.747961 19.415518,-8.952161c3.948919,1.91832 10.53045,4.47608 14.808446,5.43524c10.859527,2.87748 9.872297,14.387401 -1.316306,14.387401c-6.581532,0 -8.226914,1.27888 -6.581532,5.11552c0.98723,2.87748 1.974459,5.75496 1.974459,6.3944c0,0.63944 1.974459,1.27888 4.277995,1.27888c2.632613,0 7.239685,2.87748 10.53045,6.3944c3.290766,3.51692 7.897838,6.3944 10.201374,6.3944c6.910608,0 12.50491,12.469081 7.568761,17.904321c-6.581532,7.673281 -15.137523,5.11552 -22.377207,-6.71412c-5.265225,-8.952161 -8.885068,-11.190201 -16.782905,-11.190201c-5.265225,0 -9.872297,0.95916 -9.872297,1.91832c0,1.27888 6.581532,10.231041 14.808446,19.822641c8.226914,9.591601 14.808446,20.781801 14.808446,24.938162c0,3.83664 1.974459,8.632441 4.277995,9.911321c5.923378,3.51692 15.466599,18.863481 15.466599,24.938162c0,9.271881 -15.795676,4.15636 -20.073671,-6.71412c-4.936149,-13.428241 -12.175833,-8.952161 -16.124752,9.911321c-3.948919,18.863481 -6.581532,22.700122 -12.50491,16.945161z"/>
   <path stroke="#ffffff" fill="#000000" stroke-width="0" id="svg_9" d="m473.039234,2503.193849c-2.632613,-12.149361 -5.265225,-17.904321 -8.885068,-17.904321c-2.632613,0 -5.594302,2.55776 -6.581532,5.75496c-1.974459,8.312721 -13.821216,15.026841 -18.428288,10.550761c-3.948919,-3.83664 4.936149,-22.060682 13.163063,-26.856482c2.303536,-1.27888 4.277995,-6.07468 4.277995,-10.550761c0,-5.11552 5.594302,-14.387401 14.808446,-24.618442c8.226914,-9.271881 14.808446,-17.584601 14.808446,-18.863481c0,-1.5986 -4.277995,-2.55776 -9.214144,-2.55776c-9.543221,0 -17.770135,6.3944 -21.389977,16.945161c-3.619842,9.591601 -22.048131,4.7958 -22.048131,-6.07468c0,-2.23804 9.543221,-10.231041 21.389977,-17.904321c11.846757,-7.673281 21.389977,-14.707121 21.389977,-15.986001c0,-1.5986 -4.277995,-2.55776 -9.872297,-2.55776c-14.808446,0 -13.163063,-10.231041 2.632613,-16.945161c6.910608,-2.87748 14.808446,-5.43524 17.441059,-5.43524c12.833986,0 17.770135,19.822641 6.252455,25.577602c-7.897838,4.15636 -8.555991,12.149361 -1.645383,14.707121c2.632613,1.27888 4.936149,5.11552 4.936149,9.271881c0,4.15636 1.974459,7.993001 4.607072,8.952161c9.543221,3.51692 8.226914,15.346561 -3.290766,27.495922c-6.252455,6.71412 -11.188604,13.428241 -11.188604,14.707121c0,1.27888 -2.632613,4.47608 -5.594302,6.71412c-5.265225,3.83664 -5.265225,4.15636 -0.329077,4.47608c2.961689,0 5.923378,-1.5986 6.581532,-3.83664c1.645383,-4.15636 19.086441,-0.95916 19.086441,3.51692c0,1.5986 -3.619842,3.83664 -7.897838,4.7958c-6.910608,1.5986 -8.226914,4.15636 -9.214144,16.945161c-0.658153,11.190201 -2.303536,15.666281 -6.581532,16.305721c-4.277995,0.63944 -6.252455,-2.87748 -9.214144,-16.625441z"/>
   <path stroke="#ffffff" fill="#000000" stroke-width="0" id="svg_10" d="m736.629571,2502.234689c-1.974459,-6.71412 -3.619842,-17.904321 -3.619842,-24.938162c0.329077,-7.03384 -1.316306,-24.298722 -3.290766,-38.366403c-2.632613,-17.904321 -2.632613,-29.094522 -0.329077,-37.087523c3.948919,-13.108521 33.236734,-40.924163 44.096261,-42.203043c7.239685,-0.63944 7.239685,0 7.239685,51.155204c0,28.455082 -0.98723,52.434084 -1.974459,53.712964c-1.316306,0.95916 -6.252455,-1.5986 -11.188604,-6.07468c-10.53045,-9.591601 -15.466599,-10.231041 -21.389977,-3.51692c-5.265225,6.07468 -1.645383,10.550761 7.239685,9.271881c20.402748,-3.51692 32.249504,31.332562 15.466599,43.801643c-4.277995,3.1972 -12.50491,6.07468 -18.099212,6.07468c-8.885068,0 -10.53045,-1.5986 -14.150293,-11.829641z"/>
   <path stroke="#ffffff" fill="#000000" stroke-width="0" id="svg_11" d="m125.205293,2498.078329c-3.948919,-1.5986 -8.555991,-5.43524 -10.201374,-8.632441c-3.948919,-7.353561 -2.303536,-53.073524 2.961689,-81.848326c3.619842,-18.543761 5.923378,-23.659282 17.111982,-34.529762c7.239685,-6.71412 14.479369,-12.469081 16.782905,-12.469081c1.974459,-0.31972 7.897838,-3.51692 13.163063,-7.993001c7.897838,-6.07468 8.885068,-8.312721 5.594302,-12.149361c-3.290766,-3.83664 -2.632613,-5.75496 3.619842,-9.911321c8.226914,-5.75496 15.795676,-6.71412 15.795676,-1.91832c0,7.993001 9.872297,2.23804 13.49214,-7.993001c5.265225,-13.428241 13.49214,-15.666281 47.716104,-12.788801c27.313356,2.55776 34.223964,6.71412 34.223964,21.101521c0,10.870481 -7.239685,12.469081 -17.111982,3.83664c-3.290766,-2.87748 -13.49214,-5.75496 -23.693513,-6.71412c-15.137523,-1.27888 -21.389977,0.31972 -41.134572,9.271881c-14.479369,6.71412 -23.03536,12.149361 -22.048131,14.707121c0.98723,2.23804 -0.98723,13.108521 -4.277995,23.979002c-3.619842,11.190201 -8.226914,32.931162 -10.201374,48.277723c-2.303536,15.346561 -5.923378,30.053682 -8.555991,32.611442c-2.632613,2.23804 -4.607072,10.231041 -4.607072,17.584601c0,9.591601 -1.974459,15.026841 -8.226914,20.781801c-8.555991,8.632441 -9.872297,8.952161 -20.402748,4.7958zm25.338896,-46.359403c0,-5.75496 -7.568761,-17.584601 -11.188604,-17.584601c-3.619842,0 -15.137523,12.788801 -15.137523,16.625441c0,1.27888 26.326126,2.23804 26.326126,0.95916z"/>
   <path stroke="#ffffff" fill="#000000" stroke-width="0" id="svg_12" d="m934.075517,2492.962808c-4.607072,-5.75496 -6.910608,-13.108521 -6.910608,-22.380402c0,-7.353561 -1.645383,-14.067681 -3.619842,-14.707121c-3.619842,-1.27888 -12.50491,-36.767803 -12.833986,-52.114364c0,-5.11552 -2.961689,-18.543761 -6.581532,-29.414242c-3.619842,-11.190201 -5.594302,-22.060682 -4.936149,-23.979002c0.98723,-2.55776 -7.239685,-8.312721 -22.048131,-14.707121c-20.073671,-8.952161 -26.984279,-10.550761 -41.134572,-9.591601c-9.872297,0.95916 -20.073671,3.83664 -23.364437,6.71412c-9.543221,8.312721 -17.111982,7.03384 -17.111982,-3.1972c0,-15.026841 4.607072,-18.224041 30.275045,-20.462081c36.856577,-3.51692 46.728874,-1.27888 51.665022,11.829641c3.619842,9.911321 13.49214,15.346561 13.49214,7.673281c0,-4.7958 7.568761,-3.83664 16.124752,1.91832c5.265225,3.83664 6.581532,6.07468 3.948919,8.632441c-5.923378,5.75496 -4.607072,7.673281 16.124752,20.462081c10.53045,7.03384 22.377207,15.986001 25.667973,20.462081c7.897838,9.911321 13.49214,38.046683 15.137523,77.372245c1.645383,30.053682 1.316306,31.012842 -6.910608,37.407243c-11.51768,8.632441 -18.757365,7.993001 -26.984279,-1.91832zm22.706284,-41.883323c0,-4.15636 -11.51768,-16.945161 -15.137523,-16.945161c-3.948919,0 -11.188604,11.829641 -11.188604,17.584601c0,0.63944 5.923378,0.95916 13.163063,0.63944c7.239685,-0.31972 13.163063,-0.95916 13.163063,-1.27888z"/>
   <path stroke="#ffffff" fill="#000000" stroke-width="0" id="svg_13" d="m93.613941,2462.269686c2.632613,-14.707121 4.277995,-15.346561 4.277995,-1.5986c0,6.71412 -1.316306,11.829641 -3.290766,11.829641c-1.645383,0 -2.303536,-4.47608 -0.98723,-10.231041z"/>
   <path stroke="#ffffff" fill="#000000" stroke-width="0" id="svg_14" d="m983.437004,2462.269686c0,-8.952161 0.658153,-9.591601 2.961689,-4.15636c3.948919,8.952161 3.948919,14.387401 0,14.387401c-1.645383,0 -3.290766,-4.7958 -2.961689,-10.231041z"/>
   <path stroke="#ffffff" fill="#000000" stroke-width="0" id="svg_15" d="m419.399752,2425.501884c-0.98723,-1.5986 0.98723,-5.43524 4.607072,-8.632441c8.885068,-7.353561 10.53045,-5.43524 3.290766,4.15636c-3.290766,4.15636 -6.910608,6.07468 -7.897838,4.47608z"/>
   <path stroke="#ffffff" fill="#000000" stroke-width="0" id="svg_16" d="m655.676734,2424.223003c-3.290766,-4.7958 0.98723,-7.993001 5.265225,-3.83664c2.303536,2.23804 2.303536,4.15636 0.329077,5.43524c-1.974459,0.95916 -4.607072,0.31972 -5.594302,-1.5986z"/>
   <path stroke="#ffffff" fill="#000000" stroke-width="0" id="svg_17" d="m384.188558,2356.122639c-3.619842,-6.71412 -3.290766,-9.591601 2.961689,-22.060682c6.581532,-13.108521 6.581532,-14.707121 1.645383,-23.979002c-2.632613,-5.75496 -4.277995,-11.509921 -2.961689,-13.428241c3.619842,-6.07468 26.655203,-3.51692 32.907658,3.51692c5.923378,6.07468 5.923378,6.71412 0.658153,15.026841c-3.290766,4.7958 -10.201374,17.584601 -15.795676,28.774802c-5.594302,10.870481 -11.188604,19.822641 -12.50491,19.822641c-1.316306,0 -4.277995,-3.51692 -6.910608,-7.673281z"/>
   <path stroke="#ffffff" fill="#000000" stroke-width="0" id="svg_18" d="m678.712094,2345.571878c-4.936149,-10.231041 -12.50491,-23.019842 -16.782905,-28.455082l-7.568761,-9.911321l7.568761,-7.03384c4.607072,-4.15636 11.51768,-6.71412 19.415518,-6.71412c11.188604,0 12.175833,0.63944 12.175833,8.952161c0,4.7958 -1.645383,10.550761 -3.619842,12.469081c-2.961689,2.87748 -1.974459,7.673281 3.619842,18.543761c5.923378,12.149361 6.581532,16.305721 3.619842,22.700122c-1.974459,4.15636 -4.936149,7.673281 -6.581532,7.673281c-1.645383,0 -7.239685,-8.312721 -11.846757,-18.224041z"/>
   <path stroke="#ffffff" fill="#000000" stroke-width="0" id="svg_19" d="m455.927252,2350.367678c-6.910608,-3.83664 -12.50491,-8.312721 -12.50491,-9.911321c0,-1.27888 -2.303536,-4.7958 -4.936149,-7.353561c-2.632613,-2.87748 -4.936149,-7.03384 -4.936149,-9.911321c0,-7.353561 18.099212,4.15636 32.249504,20.781801c12.833986,15.026841 9.214144,17.264881 -9.872297,6.3944z"/>
   <path stroke="#ffffff" fill="#000000" stroke-width="0" id="svg_20" d="m616.516621,2342.694398c6.910608,-7.993001 16.453829,-16.625441 21.719054,-19.183201c8.555991,-4.15636 9.214144,-4.15636 9.214144,0.95916c0,7.993001 -27.642432,32.931162 -36.198423,32.931162c-6.252455,0 -5.923378,-1.27888 5.265225,-14.707121z"/>
   <path stroke="#ffffff" fill="#000000" stroke-width="0" id="svg_21" d="m301.919414,2333.742237c0,-2.87748 2.303536,-5.11552 5.265225,-5.11552c5.594302,0 4.607072,7.03384 -1.316306,8.952161c-2.303536,0.63944 -3.948919,-0.95916 -3.948919,-3.83664z"/>
   <path stroke="#ffffff" fill="#000000" stroke-width="0" id="svg_22" d="m771.511688,2335.980277c-1.316306,-0.95916 -2.303536,-4.7958 -2.303536,-8.632441c0,-6.3944 0,-6.3944 4.936149,0c2.632613,3.1972 4.936149,7.03384 4.936149,8.632441c0,2.87748 -4.607072,2.87748 -7.568761,0z"/>
   <path stroke="#ffffff" fill="#000000" stroke-width="0" id="svg_23" d="m312.778941,2288.981434l0.658153,-31.652282l-11.846757,-6.07468c-8.885068,-4.47608 -19.744595,-6.07468 -41.134572,-6.3944c-16.124752,-0.31972 -32.249504,0 -35.869347,0.95916c-5.594302,0.95916 -6.581532,-0.31972 -5.923378,-9.271881c0,-5.75496 2.961689,-13.428241 5.923378,-16.625441c3.619842,-3.83664 4.936149,-8.952161 3.948919,-13.108521c-0.98723,-3.83664 -0.658153,-9.591601 0.98723,-12.788801c2.961689,-5.11552 4.277995,-4.7958 13.49214,3.83664c11.846757,10.870481 31.920428,17.264881 44.096261,14.387401c9.872297,-2.55776 14.150293,-10.231041 9.543221,-17.264881c-3.948919,-5.75496 -46.399797,-17.264881 -55.943018,-15.026841c-11.846757,2.55776 -14.479369,-4.15636 -11.188604,-28.774802c1.645383,-12.469081 2.961689,-23.339562 3.290766,-24.618442c0,-4.15636 8.885068,-2.87748 21.389977,2.87748c13.163063,6.07468 14.479369,9.591601 4.277995,11.190201c-9.214144,1.27888 -11.846757,8.952161 -2.961689,8.952161c10.201374,0 11.51768,6.07468 1.974459,8.312721c-9.543221,2.23804 -9.214144,8.632441 0.329077,10.550761c3.290766,0.63944 7.568761,2.87748 8.885068,5.43524c2.961689,5.11552 17.441059,6.07468 20.402748,1.27888c0.98723,-1.5986 0.98723,-5.11552 -0.658153,-7.03384c-1.316306,-2.23804 -1.974459,-6.71412 -1.645383,-9.911321c0.658153,-3.51692 -1.974459,-6.71412 -7.239685,-8.632441c-9.214144,-3.1972 -11.51768,-9.591601 -3.619842,-9.591601c2.632613,0 4.936149,-1.27888 4.936149,-2.87748c0,-1.5986 4.607072,-4.47608 10.201374,-6.3944c12.50491,-4.15636 12.50491,-16.305721 -0.329077,-19.822641c-24.680743,-6.71412 -46.728874,-9.911321 -57.259324,-7.993001c-12.50491,2.23804 -13.821216,0.95916 -15.795676,-22.060682c-0.98723,-9.591601 -1.645383,-9.911321 -16.453829,-5.75496c-3.948919,1.27888 -6.252455,-0.95916 -7.568761,-6.3944c-1.974459,-7.03384 0.329077,-10.550761 12.833986,-22.700122c8.226914,-7.673281 15.137523,-15.666281 15.137523,-17.264881c0,-6.3944 -17.111982,-7.673281 -24.02259,-1.5986c-13.49214,11.190201 -22.048131,21.740962 -25.99705,32.291722c-4.277995,10.870481 -9.543221,12.788801 -15.466599,5.75496c-5.923378,-7.03384 -7.568761,-43.162203 -2.961689,-62.665124l4.277995,-17.584601l26.326126,-2.55776c29.616892,-3.1972 33.236734,-5.11552 36.198423,-18.543761c2.303536,-10.550761 4.277995,-11.190201 12.833986,-5.11552c5.923378,4.15636 5.923378,4.7958 -0.658153,19.502921c-5.265225,10.870481 -6.252455,16.945161 -3.948919,22.700122c2.632613,6.71412 3.619842,23.019842 3.290766,51.474924c0,5.75496 2.632613,13.428241 5.923378,17.264881c4.936149,5.75496 7.897838,6.71412 18.099212,4.7958c9.543221,-1.91832 12.833986,-4.15636 14.479369,-10.870481c4.277995,-17.904321 20.402748,-17.904321 37.843806,-0.31972c14.479369,15.026841 15.795676,20.781801 5.265225,23.659282c-11.188604,2.87748 -12.175833,2.55776 -10.201374,-4.47608c1.974459,-7.353561 -4.936149,-8.952161 -11.51768,-2.55776c-3.290766,3.1972 -5.594302,3.1972 -10.53045,0c-8.226914,-4.7958 -9.872297,-4.7958 -9.872297,0.63944c0,4.15636 25.338896,17.904321 32.578581,17.904321c1.645383,0 4.277995,2.87748 5.265225,6.3944c3.290766,9.911321 11.51768,7.993001 11.51768,-2.55776c0,-11.509921 2.632613,-14.067681 10.201374,-10.231041c8.555991,4.47608 10.53045,-0.95916 5.923378,-15.346561c-4.936149,-16.625441 -22.706284,-34.849482 -38.172883,-39.965003c-11.51768,-3.51692 -12.50491,-4.7958 -12.833986,-16.625441c-0.329077,-17.264881 -3.619842,-26.536762 -11.51768,-30.373402c-3.948919,-2.23804 -6.252455,-6.71412 -6.252455,-12.788801c0,-14.707121 11.188604,-12.788801 20.402748,3.1972c5.265225,8.952161 12.50491,15.666281 23.03536,20.781801c15.466599,7.673281 15.466599,7.673281 23.693513,1.27888c11.188604,-8.632441 12.833986,-7.673281 11.188604,5.75496c-0.98723,7.03384 0.98723,18.224041 4.607072,27.176202c3.290766,8.632441 5.923378,20.142361 5.923378,25.897322c0,13.108521 -5.923378,34.210042 -9.872297,34.210042c-1.645383,0 -5.923378,5.43524 -9.872297,12.149361c-3.948919,6.3944 -11.846757,14.067681 -17.441059,16.625441c-11.846757,5.43524 -20.073671,18.543761 -15.137523,24.298722c6.252455,7.353561 13.49214,37.087523 9.872297,40.604443c-1.974459,1.91832 -3.619842,5.43524 -3.619842,7.673281c0,5.75496 8.885068,5.11552 11.188604,-0.63944c0.98723,-2.55776 3.290766,-4.7958 5.265225,-4.7958c4.936149,0 3.948919,8.312721 -1.645383,12.788801c-6.910608,5.43524 -6.252455,26.217042 1.316306,40.604443c5.265225,10.550761 5.923378,15.346561 3.290766,34.210042c-1.645383,12.149361 -4.936149,24.298722 -7.239685,27.176202c-2.632613,2.87748 -5.594302,7.353561 -6.581532,9.911321c-1.316306,2.55776 -1.645383,-9.271881 -1.316306,-26.856482z"/>
   <path stroke="#ffffff" fill="#000000" stroke-width="0" id="svg_24" d="m765.917387,2315.198476c0,-1.91832 -2.303536,-6.07468 -4.936149,-8.952161c-2.961689,-2.87748 -6.252455,-15.346561 -7.897838,-27.495922c-2.632613,-18.863481 -1.974459,-23.659282 3.290766,-34.210042c7.568761,-14.707121 8.226914,-36.767803 1.316306,-39.325563c-5.265225,-2.23804 -6.910608,-14.067681 -1.645383,-14.067681c1.645383,0 4.607072,2.87748 6.910608,6.71412c2.632613,5.11552 4.607072,5.75496 7.239685,3.1972c2.961689,-2.87748 2.632613,-5.43524 -0.329077,-10.231041c-4.607072,-6.71412 -1.974459,-19.822641 7.568761,-38.686123c3.619842,-7.03384 3.290766,-9.591601 -1.974459,-18.224041c-3.290766,-5.43524 -9.543221,-10.550761 -13.821216,-11.509921c-4.277995,-1.27888 -10.53045,-6.71412 -13.821216,-12.149361c-3.290766,-5.75496 -7.897838,-11.190201 -10.201374,-12.788801c-5.265225,-2.87748 -11.188604,-22.380402 -11.188604,-35.808643c0,-5.43524 2.632613,-16.945161 5.923378,-25.577602c3.619842,-9.271881 5.594302,-21.101521 4.607072,-28.135362c-1.645383,-13.747961 -0.329077,-14.067681 12.175833,-5.43524l8.885068,6.71412l14.150293,-7.673281c8.226914,-4.7958 17.770135,-13.428241 22.377207,-21.101521c9.214144,-15.346561 18.428288,-16.625441 20.073671,-2.87748c0.658153,5.75496 -0.98723,9.591601 -5.265225,11.829641c-8.226914,4.15636 -14.479369,20.781801 -11.846757,31.012842c2.632613,9.591601 -3.619842,17.264881 -13.821216,17.264881c-9.543221,0 -26.326126,16.625441 -34.882117,34.529762c-7.568761,16.305721 -5.923378,24.938162 3.619842,20.142361c7.568761,-4.15636 10.201374,-1.5986 10.201374,9.911321c0,10.231041 8.226914,12.469081 11.188604,3.1972c1.316306,-3.51692 8.226914,-7.673281 17.441059,-10.550761c14.808446,-4.47608 24.351667,-13.108521 19.744595,-17.584601c-1.316306,-1.27888 -4.277995,-0.63944 -6.252455,1.27888c-4.936149,4.7958 -14.808446,4.7958 -16.453829,0c-0.658153,-1.91832 -3.290766,-2.55776 -5.594302,-1.27888c-2.303536,1.5986 -3.290766,4.47608 -2.303536,7.03384c1.974459,4.7958 0.658153,5.43524 -10.201374,2.55776c-10.859527,-2.87748 -9.214144,-8.632441 5.923378,-23.659282c16.453829,-16.305721 28.300586,-16.625441 35.211194,-1.5986c2.961689,6.71412 8.226914,10.870481 15.795676,13.108521c9.543221,2.87748 11.846757,2.55776 17.441059,-3.1972c6.252455,-6.3944 7.568761,-15.346561 7.239685,-48.277723c0,-5.11552 1.316306,-14.387401 2.961689,-20.142361c2.303536,-8.632441 1.645383,-13.747961 -4.277995,-25.257882c-6.910608,-14.067681 -7.239685,-14.387401 -0.98723,-18.863481c9.214144,-6.3944 11.188604,-5.75496 13.49214,4.7958c3.290766,15.666281 8.885068,18.224041 41.134572,19.822641c21.060901,0.95916 22.048131,1.5986 26.326126,23.659282c3.619842,19.183201 2.632613,45.080523 -1.974459,57.549604c-2.961689,7.673281 -13.49214,5.75496 -15.795676,-2.55776c-0.98723,-4.15636 -7.897838,-14.387401 -15.466599,-22.380402c-10.859527,-12.469081 -15.466599,-15.026841 -24.680743,-15.026841c-15.137523,0 -14.150293,5.11552 3.948919,22.060682c20.731824,19.502921 18.428288,31.652282 -5.265225,25.577602c-3.290766,-0.95916 -5.265225,1.5986 -5.923378,8.312721c-1.974459,23.019842 -3.290766,24.618442 -16.453829,22.700122c-6.581532,-0.63944 -24.02259,0.95916 -38.501959,3.83664c-24.02259,4.7958 -26.326126,6.07468 -26.326126,13.108521c0,5.43524 3.619842,9.271881 14.808446,15.026841c16.124752,8.312721 17.441059,11.509921 6.252455,14.067681c-10.201374,2.55776 -11.51768,8.632441 -2.303536,11.509921c7.568761,2.23804 7.568761,2.23804 -1.645383,5.43524c-4.936149,1.5986 -8.555991,4.47608 -7.897838,6.71412c1.974459,5.43524 15.466599,6.07468 21.389977,0.95916c2.961689,-2.55776 8.226914,-5.43524 11.51768,-6.3944c7.568761,-2.55776 7.239685,-7.353561 -0.98723,-9.591601c-8.555991,-2.23804 -8.555991,-8.632441 -0.329077,-8.632441c9.872297,0 11.51768,-6.07468 1.974459,-8.312721c-10.859527,-2.55776 -10.53045,-6.3944 1.645383,-12.469081c15.795676,-7.993001 19.086441,-6.3944 21.389977,10.550761c0.98723,8.312721 2.632613,19.502921 3.619842,25.257882c1.974459,12.149361 -1.974459,15.026841 -20.073671,15.986001c-19.086441,0.63944 -45.083491,8.632441 -49.03241,14.707121c-5.594302,8.312721 1.645383,16.625441 15.466599,17.584601c12.50491,0.95916 28.629662,-5.43524 41.134572,-16.305721c6.581532,-5.75496 7.897838,-6.07468 10.53045,-2.23804c1.645383,2.55776 2.303536,7.993001 0.98723,12.149361c-0.98723,4.15636 0.329077,9.591601 3.290766,12.788801c6.910608,7.673281 10.201374,24.938162 5.594302,27.815642c-2.303536,1.27888 -7.239685,0.63944 -11.51768,-1.5986c-10.53045,-5.43524 -64.169932,0.63944 -75.687613,8.632441c-7.897838,5.75496 -7.897838,6.3944 -5.923378,35.488923c0.98723,15.986001 0.98723,29.414242 -0.329077,29.414242c-0.98723,0 -1.974459,-1.5986 -1.974459,-3.83664z"/>
   <path stroke="#ffffff" fill="#000000" stroke-width="0" id="svg_25" d="m113.358536,2297.294154c-6.910608,-7.03384 -12.175833,-15.346561 -12.175833,-19.502921c0,-9.591601 -8.885068,-27.815642 -18.757365,-38.046683c-18.099212,-19.183201 -28.300586,-47.318563 -21.060901,-57.869324c2.632613,-3.83664 4.936149,-3.51692 15.466599,1.27888c9.872297,4.47608 15.137523,5.11552 25.99705,2.55776c18.757365,-4.15636 26.655203,1.5986 25.00982,17.584601c-0.329077,4.7958 -35.211194,5.43524 -38.172883,0.63944c-2.961689,-4.7958 -14.808446,-3.83664 -14.808446,0.95916c0,3.83664 20.731824,32.291722 32.907658,45.400243c3.290766,3.51692 6.910608,11.829641 8.226914,18.224041c1.316306,6.3944 4.277995,14.387401 6.581532,17.584601c3.948919,5.11552 4.607072,4.47608 9.543221,-6.71412c2.961689,-6.71412 5.265225,-17.264881 5.265225,-23.019842c0,-6.07468 1.316306,-10.870481 3.290766,-10.870481c1.645383,0 7.239685,-4.15636 12.175833,-9.591601c16.782905,-18.543761 24.02259,-7.03384 9.543221,15.346561c-3.948919,6.3944 -8.555991,15.346561 -10.201374,19.183201c-2.303536,7.993001 -20.073671,34.529762 -24.351667,37.087523c-1.316306,0.95916 -7.897838,-3.83664 -14.479369,-10.231041z"/>
   <path stroke="#ffffff" fill="#000000" stroke-width="0" id="svg_26" d="m715.239594,2304.327995c-8.885068,-8.312721 -5.923378,-27.176202 5.265225,-32.931162c4.936149,-2.87748 9.872297,-3.83664 11.188604,-2.87748c2.303536,2.23804 -4.936149,34.210042 -8.555991,38.686123c-1.316306,1.5986 -4.936149,0.31972 -7.897838,-2.87748z"/>
   <path stroke="#ffffff" fill="#000000" stroke-width="0" id="svg_27" d="m948.554886,2303.049115c-7.239685,-7.673281 -11.188604,-14.707121 -23.364437,-39.005843c-4.936149,-10.231041 -9.872297,-18.543761 -11.188604,-18.543761c-1.316306,0 -3.290766,-3.83664 -4.277995,-8.312721c-2.303536,-12.469081 6.252455,-13.428241 17.111982,-1.5986c4.936149,5.43524 10.859527,9.911321 12.833986,9.911321c2.303536,0 3.948919,4.47608 3.948919,9.591601c0,13.428241 7.568761,35.169202 11.846757,35.169202c2.303536,0 5.923378,-7.673281 7.897838,-16.625441c2.303536,-9.271881 7.239685,-20.462081 11.51768,-24.938162c14.479369,-15.986001 31.262275,-39.325563 31.262275,-44.121363c0,-3.1972 -1.974459,-3.83664 -7.239685,-2.23804c-4.277995,1.27888 -16.124752,3.1972 -26.326126,4.47608c-24.02259,2.87748 -27.971509,-2.87748 -13.49214,-19.183201c3.619842,-4.15636 6.581532,-4.47608 17.111982,-1.91832c10.201374,2.87748 15.795676,2.23804 26.984279,-1.91832c17.111982,-6.71412 20.402748,-3.51692 18.099212,16.305721c-1.316306,9.911321 -6.581532,19.822641 -20.402748,37.407243c-12.833986,16.305721 -18.757365,27.495922 -20.073671,36.448083c-1.316306,8.952161 -5.265225,15.986001 -13.821216,23.979002c-12.175833,11.509921 -12.175833,11.829641 -18.428288,5.11552z"/>
   <path stroke="#ffffff" fill="#000000" stroke-width="0" id="svg_28" d="m351.939054,2288.022274c-1.974459,-9.911321 -2.961689,-18.863481 -1.974459,-19.822641c0.98723,-0.95916 5.594302,0.31972 10.53045,3.1972c9.872297,5.11552 13.821216,22.380402 6.910608,30.373402c-7.239685,8.312721 -11.51768,4.47608 -15.466599,-13.747961z"/>
   <path stroke="#ffffff" fill="#000000" stroke-width="0" id="svg_29" d="m203.196441,2296.974434c0,-7.03384 11.188604,-38.686123 13.821216,-38.686123c6.252455,0 2.303536,23.339562 -5.594302,32.611442c-4.607072,5.11552 -8.226914,7.993001 -8.226914,6.07468z"/>
   <path stroke="#ffffff" fill="#000000" stroke-width="0" id="svg_30" d="m868.918355,2290.260314c-7.568761,-8.952161 -11.188604,-34.529762 -4.607072,-30.373402c3.290766,1.5986 14.808446,36.767803 12.833986,38.366403c-0.658153,0.31972 -4.277995,-3.1972 -8.226914,-7.993001z"/>
   <path stroke="#ffffff" fill="#000000" stroke-width="0" id="svg_31" d="m161.403716,2208.411988c-3.290766,-7.993001 3.290766,-15.026841 14.150293,-15.346561c11.51768,-0.31972 14.479369,4.47608 5.923378,9.271881c-3.619842,1.5986 -7.568761,5.11552 -8.885068,7.353561c-3.619842,5.43524 -8.555991,4.7958 -11.188604,-1.27888z"/>
   <path stroke="#ffffff" fill="#000000" stroke-width="0" id="svg_32" d="m903.471396,2205.534508c-11.846757,-9.911321 -11.51768,-13.428241 1.645383,-13.428241c11.51768,0 15.466599,3.51692 15.466599,14.387401c0,8.952161 -5.923378,8.952161 -17.111982,-0.95916z"/>
   <path stroke="#ffffff" fill="#000000" stroke-width="0" id="svg_33" d="m187.729842,2172.283626c-8.555991,-7.03384 -9.543221,-13.747961 -2.961689,-20.462081c2.632613,-2.23804 5.265225,-7.993001 5.923378,-12.149361c0.329077,-4.15636 2.632613,-7.03384 4.277995,-6.07468c1.974459,0.95916 2.961689,3.83664 2.632613,6.3944c-0.658153,2.55776 -1.645383,9.911321 -2.961689,16.305721c-1.316306,7.03384 -0.658153,12.469081 1.645383,13.747961c3.948919,2.55776 4.936149,8.312721 1.316306,8.312721c-1.645383,-0.31972 -5.923378,-2.87748 -9.872297,-6.07468z"/>
   <path stroke="#ffffff" fill="#000000" stroke-width="0" id="svg_34" d="m881.094188,2175.480826c0,-1.91832 1.645383,-4.15636 3.619842,-5.43524c3.619842,-1.91832 2.632613,-15.026841 -1.974459,-29.733962c-1.974459,-5.75496 -1.645383,-7.353561 1.974459,-6.07468c2.632613,0.95916 5.265225,4.15636 5.923378,7.353561c0.658153,3.1972 2.961689,7.993001 5.594302,10.550761c6.910608,6.71412 5.594302,15.346561 -3.619842,21.101521c-9.214144,5.75496 -11.51768,6.3944 -11.51768,2.23804z"/>
   <path stroke="#ffffff" fill="#000000" stroke-width="0" id="svg_35" d="m49.188604,2167.168105c-5.923378,-6.07468 -7.897838,-12.469081 -9.543221,-32.611442c-1.645383,-23.979002 -1.316306,-25.577602 7.239685,-35.488923c7.568761,-8.632441 10.859527,-10.231041 23.364437,-10.231041c7.897838,0 17.441059,-1.5986 20.731824,-3.83664c5.265225,-3.1972 8.226914,-2.23804 18.099212,5.75496c9.214144,7.353561 11.51768,11.190201 10.859527,18.863481c-0.658153,7.673281 -1.974459,9.271881 -7.239685,8.632441c-3.619842,-0.63944 -8.885068,-3.1972 -11.51768,-5.43524c-6.581532,-5.11552 -42.121802,-1.5986 -46.399797,5.11552c-3.948919,6.07468 -3.619842,19.502921 0.658153,36.448083c4.936149,18.543761 2.961689,22.060682 -6.252455,12.788801z"/>
   <path stroke="#ffffff" fill="#000000" stroke-width="0" id="svg_36" d="m1023.913422,2165.569505c6.581532,-38.686123 6.581532,-43.481923 -1.645383,-49.236883c-9.872297,-6.71412 -36.856577,-6.71412 -47.387027,0c-17.770135,11.190201 -20.402748,-8.312721 -3.290766,-24.298722c10.201374,-9.591601 12.50491,-10.550761 18.099212,-7.03384c3.619842,1.91832 13.163063,3.83664 21.060901,3.83664c12.50491,0 15.795676,1.5986 23.364437,10.231041c8.555991,9.911321 8.885068,11.509921 7.239685,35.808643c-1.645383,22.060682 -2.961689,26.217042 -10.53045,33.570602l-8.885068,8.312721l1.974459,-11.190201z"/>
   <path stroke="#ffffff" fill="#000000" stroke-width="0" id="svg_37" d="m114.345766,2146.706024c0,-16.945161 4.936149,-22.060682 8.555991,-8.632441c2.632613,10.550761 0.658153,22.060682 -4.277995,23.659282c-2.961689,0.63944 -4.277995,-3.51692 -4.277995,-15.026841z"/>
   <path stroke="#ffffff" fill="#000000" stroke-width="0" id="svg_38" d="m958.098107,2157.576505c-2.632613,-6.3944 1.645383,-27.176202 5.265225,-27.176202c1.974459,0 3.290766,7.353561 3.290766,15.986001c0,15.346561 -4.607072,21.421242 -8.555991,11.190201z"/>
   <path stroke="#ffffff" fill="#000000" stroke-width="0" id="svg_39" d="m169.63063,2105.781861c-0.658153,-3.1972 -0.658153,-11.829641 0,-19.502921c1.974459,-19.822641 8.555991,-15.026841 9.872297,6.71412c0.658153,14.067681 0,18.224041 -3.619842,18.224041c-2.632613,0 -5.594302,-2.55776 -6.252455,-5.43524z"/>
   <path stroke="#ffffff" fill="#000000" stroke-width="0" id="svg_40" d="m901.496936,2094.59166c1.316306,-19.502921 7.897838,-24.298722 9.872297,-6.71412c1.974459,15.346561 0,23.339562 -6.252455,23.339562c-3.619842,0 -4.277995,-3.83664 -3.619842,-16.625441z"/>
   <path stroke="#ffffff" fill="#000000" stroke-width="0" id="svg_41" d="m990.676688,2073.490139c-2.961689,-1.91832 -3.290766,-7.353561 -1.316306,-19.502921c1.645383,-9.911321 1.316306,-22.700122 -0.658153,-31.332562c-2.961689,-13.747961 -2.303536,-15.346561 4.607072,-20.781801c4.277995,-3.1972 11.51768,-5.43524 16.124752,-5.11552c6.910608,0.95916 8.226914,2.23804 7.239685,10.231041c-0.658153,5.43524 1.316306,11.509921 4.936149,15.346561c4.936149,5.11552 4.936149,6.71412 0.98723,8.952161c-2.632613,1.91832 -9.872297,3.1972 -15.466599,3.1972c-13.49214,0 -13.821216,3.83664 -0.658153,8.632441c9.543221,3.51692 9.872297,3.83664 5.265225,12.788801c-6.581532,12.149361 -16.453829,20.462081 -21.060901,17.584601zm20.402748,-51.794644c0.98723,-1.5986 -0.98723,-3.1972 -4.936149,-3.1972c-3.948919,0 -5.923378,1.5986 -4.936149,3.1972c0.98723,1.91832 3.290766,3.1972 4.936149,3.1972c1.645383,0 3.948919,-1.27888 4.936149,-3.1972z"/>
   <path stroke="#ffffff" fill="#000000" stroke-width="0" id="svg_42" d="m77.818266,2067.415458c-2.632613,-3.1972 -6.581532,-8.952161 -8.885068,-13.108521c-3.948919,-7.03384 -3.619842,-7.673281 5.594302,-11.190201c5.594302,-1.91832 10.201374,-4.47608 10.201374,-5.75496c0,-3.51692 -9.543221,-6.07468 -14.808446,-4.15636c-2.632613,1.27888 -7.239685,0.31972 -9.872297,-1.91832c-3.948919,-3.1972 -3.948919,-4.7958 0.329077,-10.870481c2.632613,-4.15636 4.277995,-10.870481 3.948919,-15.026841c-0.98723,-6.3944 0.658153,-7.993001 7.897838,-8.632441c14.150293,-1.5986 23.693513,8.952161 20.731824,22.380402c-2.961689,11.829641 -2.632613,31.652282 0.329077,45.080523c1.645383,7.03384 0.658153,8.632441 -4.607072,8.632441c-3.290766,0 -8.226914,-2.55776 -10.859527,-5.43524z"/>
   <path stroke="#ffffff" fill="#000000" stroke-width="0" id="svg_43" d="m101.511779,2056.225257c-3.619842,-8.952161 2.632613,-16.625441 10.53045,-13.428241c6.581532,2.23804 6.910608,5.75496 2.303536,14.387401c-4.607072,7.993001 -9.543221,7.673281 -12.833986,-0.95916z"/>
   <path stroke="#ffffff" fill="#000000" stroke-width="0" id="svg_44" d="m966.654098,2057.184417c-4.607072,-8.632441 -4.277995,-12.149361 2.303536,-14.387401c7.897838,-3.1972 14.150293,4.47608 10.53045,13.428241c-3.290766,8.632441 -8.226914,8.952161 -12.833986,0.95916z"/>
   <path stroke="#ffffff" fill="#000000" stroke-width="0" id="svg_45" d="m324.954774,1978.533292c-6.581532,-13.108521 -8.226914,-14.387401 -19.415518,-14.387401c-11.51768,0 -12.50491,-0.63944 -18.099212,-15.986001c-4.936149,-13.108521 -5.265225,-16.945161 -1.645383,-21.101521c3.290766,-3.83664 2.961689,-5.43524 -2.961689,-9.591601c-6.252455,-4.15636 -6.910608,-6.71412 -4.936149,-18.224041c1.974459,-13.747961 12.50491,-32.611442 22.048131,-40.284723c7.239685,-5.75496 10.201374,-2.55776 5.265225,6.07468c-1.974459,3.83664 -4.936149,18.543761 -6.581532,32.931162c-2.961689,29.733962 -1.316306,33.250882 20.402748,44.121363c16.782905,8.312721 25.667973,7.673281 41.463649,-3.51692c13.163063,-8.952161 20.402748,-11.829641 20.402748,-7.673281c0,2.87748 -31.920428,50.196044 -38.172883,56.590444c-8.226914,7.993001 -9.872297,7.03384 -17.770135,-8.952161z"/>
   <path stroke="#ffffff" fill="#000000" stroke-width="0" id="svg_46" d="m739.591261,1988.764333c-2.961689,-2.23804 -8.885068,-9.591601 -13.163063,-16.625441c-4.277995,-7.03384 -11.846757,-17.904321 -17.111982,-24.298722c-16.124752,-20.462081 -10.201374,-25.257882 10.53045,-9.271881c17.111982,13.108521 31.262275,12.788801 50.01964,-0.95916l14.150293,-10.550761l-1.316306,-22.380402c-0.658153,-12.149361 -2.961689,-27.815642 -5.594302,-34.849482c-5.265225,-15.346561 -3.619842,-17.584601 6.252455,-7.673281c11.846757,12.149361 17.441059,22.700122 19.744595,36.448083c2.303536,14.067681 0.658153,18.543761 -9.214144,22.060682c-6.252455,2.23804 -6.252455,2.55776 -0.658153,5.43524c7.239685,4.15636 7.239685,8.632441 -0.658153,25.577602c-5.923378,13.108521 -7.239685,13.747961 -17.770135,13.108521c-12.175833,-1.27888 -14.808446,1.27888 -20.402748,16.625441c-3.948919,10.870481 -7.897838,12.788801 -14.808446,7.353561z"/>
   <path stroke="#ffffff" fill="#000000" stroke-width="0" id="svg_47" d="m160.08741,1951.99653c-4.277995,-6.3944 -9.872297,-16.945161 -12.833986,-23.019842c-2.961689,-6.07468 -8.226914,-13.108521 -11.188604,-15.666281c-12.833986,-10.231041 -20.073671,-35.488923 -10.53045,-35.488923c8.555991,0 15.137523,3.83664 15.137523,8.312721c0,7.673281 12.50491,29.094522 18.099212,31.332562c2.961689,0.95916 13.49214,1.91832 23.693513,1.91832c15.466599,0 19.415518,-1.27888 27.642432,-9.271881c5.923378,-6.07468 9.543221,-12.788801 9.543221,-18.543761c0,-11.509921 4.607072,-18.224041 10.859527,-15.986001c7.239685,2.55776 10.201374,18.224041 4.607072,23.979002c-3.290766,2.87748 -4.277995,8.632441 -3.290766,16.625441c2.961689,21.421242 -19.415518,50.515764 -24.351667,31.972002c-1.316306,-4.47608 -4.607072,-6.3944 -10.859527,-6.3944c-14.150293,0 -19.744595,3.1972 -19.744595,11.190201c0,12.469081 -8.885068,11.829641 -16.782905,-0.95916z"/>
   <path stroke="#ffffff" fill="#000000" stroke-width="0" id="svg_48" d="m906.433085,1962.227571c-1.316306,-1.27888 -2.303536,-5.43524 -2.303536,-9.591601c0,-12.149361 -27.313356,-16.305721 -30.604122,-4.47608c-0.98723,3.51692 -3.948919,6.3944 -6.910608,6.3944c-8.885068,0 -16.782905,-15.986001 -17.111982,-33.890322c0,-9.271881 -1.974459,-19.183201 -4.277995,-21.740962c-5.265225,-6.3944 -0.329077,-22.380402 7.239685,-23.659282c3.948919,-0.95916 5.923378,2.23804 7.568761,12.149361c1.316306,7.353561 5.923378,17.584601 10.201374,22.700122c7.239685,8.312721 10.201374,9.271881 28.629662,9.271881c11.51768,0 22.706284,-1.5986 25.338896,-3.83664c7.568761,-6.3944 16.124752,-20.781801 16.124752,-27.815642c0,-3.51692 2.961689,-7.03384 6.581532,-8.312721c16.782905,-5.11552 17.770135,11.190201 1.645383,29.733962c-6.581532,7.03384 -13.821216,17.904321 -16.782905,23.659282c-11.51768,24.618442 -20.073671,34.529762 -25.338896,29.414242z"/>
   <path stroke="#ffffff" fill="#000000" stroke-width="0" id="svg_49" d="m341.079527,1917.147048c-12.175833,-1.91832 -19.086441,-10.231041 -17.111982,-20.781801l1.645383,-8.632441l8.226914,9.591601c9.543221,10.870481 19.415518,12.149361 22.377207,2.87748c0.98723,-3.51692 3.619842,-6.3944 5.265225,-6.3944c1.645383,0 2.961689,-3.51692 2.961689,-7.673281c0,-10.231041 -11.51768,-17.904321 -26.984279,-17.904321c-9.543221,0 -13.49214,-1.91832 -17.770135,-7.993001c-2.961689,-4.47608 -4.607072,-10.231041 -3.290766,-12.788801c3.948919,-10.550761 47.05795,-2.23804 63.840856,12.149361c8.226914,7.353561 9.543221,22.060682 2.303536,27.815642c-2.632613,2.23804 -4.936149,5.43524 -4.936149,7.03384c0,1.5986 -3.948919,7.993001 -8.555991,14.067681c-8.555991,10.550761 -10.53045,11.190201 -27.971509,8.632441z"/>
   <path stroke="#ffffff" fill="#000000" stroke-width="0" id="svg_50" d="m712.936058,1909.154047c-21.719054,-28.455082 -24.351667,-38.686123 -11.846757,-49.556604c18.099212,-15.666281 61.866396,-22.380402 64.169932,-9.591601c1.974459,8.952161 -12.50491,22.060682 -21.389977,19.822641c-10.53045,-2.55776 -27.313356,6.3944 -27.313356,14.707121c0,9.911321 9.872297,22.060682 17.770135,22.060682c3.948919,0 9.872297,-4.15636 13.821216,-9.911321l7.239685,-9.591601l1.974459,8.632441c2.961689,11.509921 -5.265225,19.502921 -23.03536,22.380402c-12.175833,1.5986 -13.821216,0.95916 -21.389977,-8.952161z"/>
   <path stroke="#ffffff" fill="#000000" stroke-width="0" id="svg_51" d="m159.10018,1881.338405c-3.948919,-4.15636 -5.265225,-9.911321 -4.607072,-18.543761l1.316306,-12.149361l4.277995,9.591601c5.265225,11.829641 13.163063,20.781801 18.757365,20.781801c2.303536,0 8.226914,-3.83664 12.833986,-8.312721c6.910608,-6.71412 8.226914,-10.870481 7.568761,-21.421242l-0.98723,-13.428241l-17.441059,-0.95916c-9.872297,-0.63944 -19.415518,0.63944 -22.048131,2.55776c-5.265225,4.15636 -21.389977,-1.27888 -21.389977,-7.353561c0,-2.23804 2.303536,-7.353561 5.265225,-11.190201c4.607072,-6.3944 7.897838,-7.03384 33.565811,-7.03384c20.731824,0 30.933198,1.27888 36.198423,5.11552c8.885068,6.07468 9.214144,15.346561 0.658153,23.659282c-3.948919,3.83664 -6.581532,10.550761 -6.581532,17.584601c0,6.3944 -2.303536,15.026841 -5.265225,19.183201c-4.607072,6.71412 -7.897838,7.993001 -21.060901,7.993001c-10.859527,0 -17.111982,-1.5986 -21.060901,-6.07468z"/>
   <path stroke="#ffffff" fill="#000000" stroke-width="0" id="svg_52" d="m879.777882,1879.420085c-2.961689,-4.15636 -5.265225,-12.788801 -5.265225,-19.183201c0,-7.353561 -2.303536,-13.108521 -6.581532,-16.625441c-8.555991,-7.353561 -8.226914,-15.986001 0.98723,-23.659282c10.859527,-8.952161 58.904707,-8.632441 68.118851,0.31972c8.885068,8.632441 8.226914,15.346561 -1.645383,19.822641c-7.239685,3.1972 -8.226914,5.75496 -8.226914,19.822641c-0.329077,22.380402 -4.936149,27.495922 -25.338896,27.495922c-14.150293,0 -17.441059,-1.27888 -22.048131,-7.993001zm36.198423,-9.591601c2.632613,-3.83664 4.936149,-12.469081 5.594302,-19.502921l0.658153,-12.469081l-15.795676,-0.95916c-19.415518,-1.27888 -25.338896,2.87748 -25.338896,17.584601c0,22.380402 23.364437,32.611442 34.882117,15.346561z"/>
  </g>
 </g>
</svg>
